<svg width="18" height="21" viewBox="0 0 18 21" fill="none" xmlns="http://www.w3.org/2000/svg">
<path d="M16 12.1004V8.35519C16 4.99536 13.815 2.16504 10.855 1.31385C10.562 0.543087 9.846 0 9 0C8.154 0 7.438 0.543087 7.145 1.31385C4.185 2.16608 2 4.99536 2 8.35519V12.1004L0.293001 13.8832C0.199958 13.98 0.126171 14.0951 0.0758854 14.2218C0.0256001 14.3485 -0.000189449 14.4844 1.04767e-06 14.6216V16.7104C1.04767e-06 16.9874 0.105358 17.253 0.292894 17.4489C0.480431 17.6447 0.734785 17.7548 1 17.7548H17C17.2652 17.7548 17.5196 17.6447 17.7071 17.4489C17.8946 17.253 18 16.9874 18 16.7104V14.6216C18.0002 14.4844 17.9744 14.3485 17.9241 14.2218C17.8738 14.0951 17.8 13.98 17.707 13.8832L16 12.1004ZM16 15.666H2V15.054L3.707 13.2712C3.80004 13.1743 3.87383 13.0593 3.92412 12.9325C3.9744 12.8058 4.00019 12.67 4 12.5328V8.35519C4 5.47578 6.243 3.1332 9 3.1332C11.757 3.1332 14 5.47578 14 8.35519V12.5328C14 12.8106 14.105 13.0759 14.293 13.2712L16 15.054V15.666ZM9 20.888C9.6193 20.8888 10.2235 20.6881 10.7285 20.3137C11.2335 19.9394 11.6143 19.41 11.818 18.7992H6.182C6.38566 19.41 6.76648 19.9394 7.27151 20.3137C7.77654 20.6881 8.3807 20.8888 9 20.888Z" fill="black"/>
</svg>
