<svg width="21" height="14" viewBox="0 0 21 14" fill="none" xmlns="http://www.w3.org/2000/svg">
<path d="M9.84404 9.56114C10.7772 8.94129 11.486 8.03748 11.8656 6.98347C12.2451 5.92946 12.2753 4.78126 11.9515 3.70879C11.6278 2.63632 10.9674 1.69657 10.068 1.02862C9.16865 0.360664 8.07815 0 6.95788 0C5.83762 0 4.74711 0.360664 3.84776 1.02862C2.94841 1.69657 2.28799 2.63632 1.96426 3.70879C1.64052 4.78126 1.67065 5.92946 2.05021 6.98347C2.42977 8.03748 3.13857 8.94129 4.07173 9.56114C2.481 10.1479 1.10616 11.2043 0.129422 12.5902C0.0761359 12.6648 0.0381408 12.7493 0.0176242 12.8387C-0.00289236 12.9281 -0.00552515 13.0206 0.00987743 13.111C0.02528 13.2015 0.0584137 13.2879 0.107371 13.3655C0.156329 13.4431 0.220143 13.5102 0.29514 13.563C0.370138 13.6158 0.454837 13.6532 0.544363 13.6731C0.633888 13.6931 0.726472 13.6951 0.816783 13.6791C0.907095 13.6631 0.99335 13.6294 1.07059 13.5799C1.14782 13.5305 1.21451 13.4662 1.26681 13.3909C1.90867 12.4778 2.76081 11.7325 3.75129 11.218C4.74177 10.7036 5.8415 10.435 6.95762 10.4349C8.07374 10.4349 9.17349 10.7034 10.164 11.2178C11.1545 11.7323 12.0067 12.4775 12.6486 13.3905C12.7011 13.4653 12.7679 13.529 12.8451 13.578C12.9223 13.6269 13.0083 13.6602 13.0984 13.6759C13.1884 13.6916 13.2807 13.6894 13.3699 13.6694C13.459 13.6494 13.5434 13.612 13.6181 13.5594C13.6929 13.5068 13.7565 13.4399 13.8054 13.3627C13.8543 13.2855 13.8874 13.1994 13.903 13.1093C13.9186 13.0192 13.9163 12.927 13.8962 12.8378C13.8761 12.7487 13.8386 12.6643 13.7859 12.5897C12.8092 11.204 11.4345 10.1478 9.84404 9.56106V9.56114ZM3.13264 5.21884C3.13264 4.46229 3.35698 3.72273 3.7773 3.09367C4.19762 2.46462 4.79504 1.97434 5.494 1.68482C6.19296 1.3953 6.96208 1.31955 7.7041 1.46714C8.44612 1.61474 9.1277 1.97905 9.66267 2.51402C10.1976 3.04898 10.5619 3.73057 10.7095 4.47258C10.8571 5.2146 10.7814 5.98372 10.4919 6.68268C10.2023 7.38165 9.71206 7.97906 9.08301 8.39938C8.45396 8.8197 7.71439 9.04404 6.95784 9.04404C5.94369 9.04289 4.9714 8.63951 4.25429 7.9224C3.53717 7.20528 3.13379 6.233 3.13264 5.21884ZM20.7049 13.5588C20.6302 13.6114 20.5459 13.6488 20.4568 13.6688C20.3677 13.6888 20.2755 13.6911 20.1855 13.6755C20.0955 13.6598 20.0095 13.6266 19.9323 13.5778C19.8552 13.5289 19.7884 13.4653 19.7358 13.3906C19.0932 12.4784 18.2408 11.7338 17.2506 11.2195C16.2603 10.7051 15.161 10.4361 14.0451 10.435C13.8606 10.435 13.6837 10.3618 13.5533 10.2313C13.4229 10.1009 13.3496 9.92399 13.3496 9.73954C13.3496 9.55508 13.4229 9.37818 13.5533 9.24775C13.6837 9.11732 13.8606 9.04404 14.0451 9.04404C14.5913 9.04343 15.1311 8.92584 15.6281 8.69917C16.1251 8.47251 16.5677 8.14203 16.9263 7.72997C17.2849 7.31791 17.5511 6.83384 17.707 6.31031C17.8628 5.78677 17.9047 5.23593 17.8299 4.69485C17.7551 4.15376 17.5652 3.63497 17.2732 3.17338C16.9811 2.7118 16.5935 2.31813 16.1365 2.01885C15.6796 1.71958 15.1638 1.52164 14.624 1.43836C14.0841 1.35508 13.5327 1.38839 13.0068 1.53604C12.8295 1.58522 12.6399 1.56212 12.4796 1.47181C12.3192 1.3815 12.2012 1.23133 12.1514 1.0542C12.1016 0.877065 12.124 0.687402 12.2137 0.526746C12.3034 0.366091 12.4531 0.247537 12.6301 0.197049C13.8265 -0.140508 15.1042 -0.0396066 16.2328 0.481568C17.3614 1.00274 18.2667 1.90991 18.7855 3.03957C19.3044 4.16923 19.4027 5.44708 19.0627 6.64281C18.7227 7.83853 17.9668 8.87349 16.9312 9.56114C18.5217 10.1479 19.8964 11.2041 20.8731 12.5897C20.9793 12.7406 21.0213 12.9274 20.9897 13.1091C20.9582 13.2909 20.8557 13.4526 20.7049 13.5588Z" fill="white"/>
</svg>
