<svg width="5" height="6" viewBox="0 0 5 6" fill="none" xmlns="http://www.w3.org/2000/svg">
<path d="M0.255719 5.13081C-0.0722496 4.93254 -0.097987 4.6565 0.255719 4.41412L3.0111 2.63694L0.255719 0.859755C-0.0979873 0.61737 -0.0722499 0.340879 0.255719 0.14397C0.582952 -0.0543037 1.13594 -0.0415702 1.44332 0.14397C1.7507 0.3286 4.75389 2.27904 4.75389 2.27904C4.83173 2.32549 4.89364 2.38116 4.93592 2.44273C4.97821 2.5043 5 2.5705 5 2.63739C5 2.70428 4.97821 2.77049 4.93592 2.83206C4.89364 2.89362 4.83173 2.94929 4.75389 2.99574C4.75389 2.99574 1.7507 4.94527 1.44332 5.13081C1.13594 5.31681 0.582952 5.32909 0.255719 5.13081Z" fill="#858585"/>
</svg>
