<svg width="52" height="52" viewBox="0 0 52 52" fill="none" xmlns="http://www.w3.org/2000/svg">
<path fill-rule="evenodd" clip-rule="evenodd" d="M26.0002 9.74994C26.8976 9.74993 27.6252 10.4775 27.6252 11.3749L27.6253 24.6876L40.9379 24.6876C41.8354 24.6876 42.5629 25.4151 42.5629 26.3126C42.5629 27.21 41.8354 27.9376 40.9379 27.9376L27.6253 27.9376L27.6253 41.2501C27.6253 42.1476 26.8978 42.8752 26.0003 42.8752C25.1029 42.8752 24.3753 42.1476 24.3753 41.2502L24.3753 27.9376L11.0626 27.9375C10.1651 27.9375 9.43757 27.21 9.43757 26.3125C9.43758 25.4151 10.1651 24.6875 11.0626 24.6875L24.3753 24.6876L24.3752 11.375C24.3752 10.4775 25.1027 9.74995 26.0002 9.74994Z" fill="#999CA0"/>
</svg>
