<svg width="15" height="18" viewBox="0 0 15 18" fill="none" xmlns="http://www.w3.org/2000/svg">
<path d="M3.26971 4.52621C3.44898 4.70398 3.69122 4.80372 3.94368 4.80372C4.19615 4.80372 4.43839 4.70398 4.61766 4.52621C4.70594 4.43871 4.77601 4.3346 4.82383 4.21987C4.87165 4.10515 4.89627 3.98209 4.89627 3.8578C4.89627 3.73351 4.87165 3.61045 4.82383 3.49572C4.77601 3.381 4.70594 3.27688 4.61766 3.18939C4.43839 3.01162 4.19615 2.91187 3.94368 2.91187C3.69122 2.91187 3.44898 3.01162 3.26971 3.18939C2.89871 3.55915 2.89871 4.15768 3.26971 4.52621ZM14.1782 10.0911C14.4094 9.86211 14.5928 9.58955 14.7181 9.2892C14.8433 8.98886 14.9077 8.66668 14.9077 8.34128C14.9077 8.01588 14.8433 7.6937 14.7181 7.39336C14.5928 7.09301 14.4094 6.82045 14.1782 6.59142L8.29175 0.742052C7.8262 0.280164 7.19769 0.0198748 6.54189 0.0173737L2.50546 6.05298e-05C2.17723 -0.00223172 1.85182 0.0606026 1.54804 0.184926C1.24426 0.30925 0.968165 0.492593 0.735724 0.724342C0.503285 0.956092 0.319122 1.23165 0.193897 1.53505C0.0686703 1.83846 0.00486717 2.16369 0.00618333 2.49191L0.0358635 6.66314C0.0412126 7.31389 0.303459 7.93617 0.765489 8.39446L6.56539 14.1573C7.03363 14.6211 7.66606 14.8813 8.32514 14.8813C8.98423 14.8813 9.61666 14.6211 10.0849 14.1573L14.1782 10.0911ZM13.2977 7.46573C13.4133 7.58025 13.505 7.71653 13.5676 7.8667C13.6302 8.01687 13.6625 8.17796 13.6625 8.34066C13.6625 8.50336 13.6302 8.66445 13.5676 8.81462C13.505 8.96479 13.4133 9.10107 13.2977 9.21559L9.2044 13.2842C8.7184 13.7665 7.93065 13.7665 7.44465 13.2842L1.64475 7.52014C1.41413 7.29083 1.28345 6.9797 1.28117 6.65449L1.25026 2.48326C1.24943 2.31902 1.28124 2.15625 1.34382 2.00439C1.40641 1.85254 1.49853 1.71463 1.61484 1.59866C1.73115 1.4827 1.86933 1.39099 2.02137 1.32885C2.17341 1.26672 2.33627 1.2354 2.50051 1.23671L6.53694 1.25403C6.86506 1.25511 7.17957 1.38527 7.41249 1.61636L13.299 7.46573H13.2977ZM14.8435 10.8208C15.0097 11.2654 15.0444 11.7484 14.9435 12.2121C14.8426 12.6759 14.6105 13.1009 14.2747 13.4363L11.8459 15.8651C11.3866 16.3244 10.8412 16.6888 10.2411 16.9374C9.6409 17.186 8.99764 17.314 8.34802 17.314C7.6984 17.314 7.05514 17.186 6.45498 16.9374C5.85481 16.6888 5.30949 16.3244 4.85015 15.8651L0.544129 11.559C0.196153 11.2115 0.000432958 10.74 0 10.2482V9.28361L4.85015 14.1338C4.93548 14.2191 5.02328 14.3007 5.11232 14.3774L5.72446 14.9908C6.06897 15.3353 6.47798 15.6087 6.92814 15.7951C7.37829 15.9816 7.86077 16.0776 8.34802 16.0776C8.83527 16.0776 9.31775 15.9816 9.76791 15.7951C10.2181 15.6087 10.6271 15.3353 10.9716 14.9908L11.5887 14.3737C11.6772 14.2967 11.763 14.2167 11.8459 14.1338L14.2747 11.705C14.5257 11.4546 14.7197 11.153 14.8435 10.8208Z" fill="white"/>
</svg>
