<svg width="13" height="16" viewBox="0 0 13 16" fill="none" xmlns="http://www.w3.org/2000/svg">
<path d="M7.17278 1.37717C8.22053 0.00668138 9.67714 0 9.67714 0C9.67714 0 9.89381 1.28849 8.85293 2.52972C7.74153 3.85508 6.47827 3.6382 6.47827 3.6382C6.47827 3.6382 6.24106 2.59586 7.17278 1.37717ZM6.61153 4.54079C7.15054 4.54079 8.15093 3.80547 9.45306 3.80547C11.6945 3.80547 12.5762 5.38828 12.5762 5.38828C12.5762 5.38828 10.8516 6.26334 10.8516 8.38661C10.8516 10.7818 13 11.6073 13 11.6073C13 11.6073 11.4982 15.8022 9.46975 15.8022C8.53808 15.8022 7.81375 15.1791 6.8321 15.1791C5.83172 15.1791 4.83899 15.8255 4.19242 15.8255C2.34011 15.8255 0 11.8462 0 8.64752C0 5.50046 1.98075 3.84956 3.83861 3.84956C5.04639 3.84956 5.98363 4.54079 6.61153 4.54079Z" fill="#999999"/>
</svg>
