<svg width="19" height="18" viewBox="0 0 19 18" fill="none" xmlns="http://www.w3.org/2000/svg">
<path d="M9.50001 8.77749C8.98758 8.77749 8.48665 8.93192 8.06058 9.22127C7.63451 9.51061 7.30242 9.92187 7.10632 10.403C6.91022 10.8842 6.85891 11.4137 6.95888 11.9245C7.05886 12.4353 7.30562 12.9045 7.66796 13.2727C8.03031 13.641 8.49196 13.8918 8.99455 13.9934C9.49714 14.095 10.0181 14.0428 10.4915 13.8435C10.9649 13.6442 11.3696 13.3067 11.6543 12.8737C11.939 12.4407 12.0909 11.9315 12.0909 11.4107C12.0909 10.7124 11.818 10.0426 11.3321 9.54875C10.8462 9.05492 10.1872 8.77749 9.50001 8.77749ZM9.50001 12.2885C9.3292 12.2885 9.16223 12.237 9.0202 12.1406C8.87818 12.0441 8.76748 11.907 8.70212 11.7466C8.63675 11.5862 8.61965 11.4098 8.65297 11.2395C8.68629 11.0692 8.76855 10.9128 8.88933 10.7901C9.01011 10.6673 9.164 10.5837 9.33153 10.5499C9.49906 10.516 9.6727 10.5334 9.83051 10.5998C9.98832 10.6662 10.1232 10.7787 10.2181 10.9231C10.313 11.0674 10.3637 11.2371 10.3637 11.4107C10.3637 11.6435 10.2727 11.8668 10.1107 12.0314C9.94873 12.196 9.72906 12.2885 9.50001 12.2885ZM8.88683 6.76744C8.96897 6.84735 9.06582 6.90999 9.17183 6.95177C9.27521 6.99821 9.38699 7.02219 9.50001 7.02219C9.61304 7.02219 9.72482 6.99821 9.8282 6.95177C9.93421 6.90999 10.0311 6.84735 10.1132 6.76744L12.0909 4.79251C12.2581 4.62257 12.3521 4.39208 12.3521 4.15175C12.3521 3.91142 12.2581 3.68093 12.0909 3.51099C11.9237 3.34106 11.6969 3.24558 11.4605 3.24558C11.224 3.24558 10.9972 3.34106 10.83 3.51099L10.3637 4.02887V0.877749C10.3637 0.644955 10.2727 0.421696 10.1107 0.257087C9.94873 0.0924768 9.72906 0 9.50001 0C9.27096 0 9.05129 0.0924768 8.88933 0.257087C8.72737 0.421696 8.63638 0.644955 8.63638 0.877749V4.02887L8.17001 3.51099C8.0028 3.34106 7.77602 3.24558 7.53956 3.24558C7.30309 3.24558 7.07631 3.34106 6.9091 3.51099C6.74189 3.68093 6.64796 3.91142 6.64796 4.15175C6.64796 4.39208 6.74189 4.62257 6.9091 4.79251L8.88683 6.76744ZM15.5455 11.4107C15.5455 11.2371 15.4948 11.0674 15.3999 10.9231C15.305 10.7787 15.1701 10.6662 15.0123 10.5998C14.8545 10.5334 14.6809 10.516 14.5134 10.5499C14.3458 10.5837 14.1919 10.6673 14.0712 10.7901C13.9504 10.9128 13.8681 11.0692 13.8348 11.2395C13.8015 11.4098 13.8186 11.5862 13.8839 11.7466C13.9493 11.907 14.06 12.0441 14.202 12.1406C14.3441 12.237 14.511 12.2885 14.6818 12.2885C14.9109 12.2885 15.1306 12.196 15.2925 12.0314C15.4545 11.8668 15.5455 11.6435 15.5455 11.4107ZM16.4091 5.26649H13.8182C13.5892 5.26649 13.3695 5.35897 13.2075 5.52358C13.0456 5.68819 12.9546 5.91145 12.9546 6.14424C12.9546 6.37703 13.0456 6.60029 13.2075 6.7649C13.3695 6.92951 13.5892 7.02199 13.8182 7.02199H16.4091C16.6382 7.02199 16.8578 7.11447 17.0198 7.27908C17.1818 7.44369 17.2728 7.66694 17.2728 7.89974V14.9217C17.2728 15.1545 17.1818 15.3778 17.0198 15.5424C16.8578 15.707 16.6382 15.7995 16.4091 15.7995H2.59091C2.36186 15.7995 2.14219 15.707 1.98023 15.5424C1.81827 15.3778 1.72728 15.1545 1.72728 14.9217V7.89974C1.72728 7.66694 1.81827 7.44369 1.98023 7.27908C2.14219 7.11447 2.36186 7.02199 2.59091 7.02199H5.18183C5.41088 7.02199 5.63055 6.92951 5.79251 6.7649C5.95447 6.60029 6.04546 6.37703 6.04546 6.14424C6.04546 5.91145 5.95447 5.68819 5.79251 5.52358C5.63055 5.35897 5.41088 5.26649 5.18183 5.26649H2.59091C1.90376 5.26649 1.24475 5.54392 0.758861 6.03775C0.27297 6.53158 0 7.20136 0 7.89974V14.9217C0 15.6201 0.27297 16.2899 0.758861 16.7837C1.24475 17.2775 1.90376 17.555 2.59091 17.555H16.4091C17.0963 17.555 17.7553 17.2775 18.2412 16.7837C18.7271 16.2899 19 15.6201 19 14.9217V7.89974C19 7.20136 18.7271 6.53158 18.2412 6.03775C17.7553 5.54392 17.0963 5.26649 16.4091 5.26649ZM3.45455 11.4107C3.45455 11.5843 3.5052 11.754 3.6001 11.8984C3.695 12.0427 3.82988 12.1552 3.98769 12.2217C4.1455 12.2881 4.31915 12.3055 4.48668 12.2716C4.6542 12.2377 4.80809 12.1542 4.92887 12.0314C5.04965 11.9086 5.13191 11.7522 5.16523 11.582C5.19855 11.4117 5.18145 11.2352 5.11608 11.0748C5.05072 10.9144 4.94002 10.7774 4.798 10.6809C4.65597 10.5845 4.489 10.533 4.31819 10.533C4.08914 10.533 3.86947 10.6255 3.7075 10.7901C3.54554 10.9547 3.45455 11.1779 3.45455 11.4107Z" fill="white"/>
</svg>
