<svg width="17" height="17" viewBox="0 0 17 17" fill="none" xmlns="http://www.w3.org/2000/svg">
<path d="M15.9644 8.94868C16.311 8.49073 16.5028 7.92963 16.5028 7.34584C16.5028 6.41962 15.9851 5.54291 15.1517 5.05401C14.9371 4.92816 14.6928 4.86193 14.4441 4.86216H9.49738L9.62115 2.32692C9.65003 1.71425 9.43344 1.13252 9.01261 0.689009C8.80609 0.470404 8.55693 0.296474 8.28054 0.177968C8.00414 0.0594615 7.70638 -0.00110365 7.40565 1.52242e-05C6.33296 1.52242e-05 5.38405 0.722014 5.09938 1.7555L3.32738 8.17098H0.660114C0.294988 8.17098 0 8.46597 0 8.8311V16.3399C0 16.705 0.294988 17 0.660114 17H13.0641C13.2538 17 13.4395 16.9629 13.6107 16.8886C14.5926 16.4698 15.2259 15.5106 15.2259 14.4462C15.2259 14.1863 15.1888 13.9305 15.1145 13.6829C15.4611 13.225 15.6529 12.6639 15.6529 12.0801C15.6529 11.8202 15.6158 11.5644 15.5415 11.3168C15.8881 10.8589 16.08 10.2978 16.08 9.714C16.0758 9.45408 16.0387 9.19622 15.9644 8.94868ZM1.48526 15.5147V9.65624H3.15617V15.5147H1.48526ZM14.6133 8.23287L14.1615 8.62481L14.4482 9.14878C14.5427 9.32138 14.5917 9.51518 14.5906 9.71194C14.5906 10.0523 14.442 10.3762 14.1863 10.599L13.7345 10.9909L14.0212 11.5149C14.1157 11.6875 14.1647 11.8813 14.1636 12.078C14.1636 12.4184 14.015 12.7423 13.7592 12.9651L13.3075 13.357L13.5942 13.881C13.6887 14.0536 13.7377 14.2474 13.7366 14.4441C13.7366 14.9062 13.4643 15.3229 13.0434 15.5127H4.47639V9.59023L6.52894 2.15364C6.58186 1.96303 6.69548 1.79487 6.85256 1.67463C7.00965 1.5544 7.20165 1.48864 7.39946 1.48733C7.55624 1.48733 7.71095 1.53272 7.83472 1.62554C8.03894 1.7782 8.14828 2.00924 8.1359 2.25472L7.93786 6.34742H14.4235C14.7907 6.57227 15.0176 6.95184 15.0176 7.34584C15.0176 7.68621 14.8691 8.00802 14.6133 8.23287Z" fill="white"/>
</svg>
