<svg width="20" height="20" viewBox="0 0 20 20" fill="none" xmlns="http://www.w3.org/2000/svg">
<path d="M7.23077 17.3846H4.46154C3.48228 17.3846 2.54312 16.9956 1.85068 16.3032C1.15824 15.6107 0.769231 14.6716 0.769231 13.6923V5.38461C0.769231 4.40535 1.15824 3.4662 1.85068 2.77375C2.54312 2.08131 3.48228 1.6923 4.46154 1.6923H14.6154C15.5946 1.6923 16.5338 2.08131 17.2262 2.77375C17.9187 3.4662 18.3077 4.40535 18.3077 5.38461V8.15384" stroke="white" stroke-width="1.5" stroke-linecap="round" stroke-linejoin="round"/>
<path d="M6.30769 0.769231V2.61538" stroke="white" stroke-width="1.5" stroke-linecap="round" stroke-linejoin="round"/>
<path d="M12.7692 0.769231V2.61538" stroke="white" stroke-width="1.5" stroke-linecap="round" stroke-linejoin="round"/>
<path d="M0.769231 6.30769H18.3077" stroke="white" stroke-width="1.5" stroke-linecap="round" stroke-linejoin="round"/>
<path d="M16 13.3627L14.6154 14.7473" stroke="white" stroke-width="1.5" stroke-linecap="round" stroke-linejoin="round"/>
<path d="M14.6154 19.2308C17.1644 19.2308 19.2308 17.1644 19.2308 14.6154C19.2308 12.0664 17.1644 10 14.6154 10C12.0664 10 10 12.0664 10 14.6154C10 17.1644 12.0664 19.2308 14.6154 19.2308Z" stroke="white" stroke-width="1.5" stroke-linecap="round" stroke-linejoin="round"/>
</svg>
