<svg width="142" height="143" viewBox="0 0 142 143" fill="none" xmlns="http://www.w3.org/2000/svg">
<path d="M65.3406 141.903C55.0631 141.051 44.8909 137.971 35.9245 132.876C26.9581 127.782 19.2092 120.795 13.2168 112.402C7.22432 104.009 3.13213 94.4112 1.22486 84.2764C-0.682415 74.1416 -0.216368 63.3925 2.31525 53.3953L17.75 57.5113C15.7938 65.2363 15.6091 73.4606 17.0829 81.2921C18.5567 89.1235 21.7188 96.5399 26.3493 103.025C30.9799 109.511 36.9677 114.91 43.8962 118.847C50.8248 122.783 58.6852 125.281 66.6268 125.939L65.3406 141.903Z" fill="#F6DC7D"/>
<path fill-rule="evenodd" clip-rule="evenodd" d="M6.61298 100.482C2.66368 91.7641 0.517763 82.3376 0.304205 72.7691C0.0906475 63.2006 1.61963 53.6647 5.17604 44.7791C8.73245 35.8935 13.9342 27.9218 20.6907 21.143C27.4471 14.3642 34.4193 9.01462 47.2944 4.04334L52.2191 19.2952C43.7883 22.5869 37.6492 27.2162 32.4282 32.4543C27.2073 37.6925 23.0994 43.9321 20.3512 50.7982C17.6031 57.6643 16.2715 65.0152 16.4366 72.409C16.6016 79.8028 18.0894 87.1642 21.1411 93.9009L21.1379 93.9023C21.1755 93.9788 21.2121 94.0562 21.2475 94.1345C23.0649 98.1463 21.2859 102.872 17.2741 104.689C13.2623 106.507 8.53678 104.728 6.7194 100.716C6.68396 100.638 6.64988 100.559 6.61717 100.48L6.61298 100.482Z" fill="#F6DC7D"/>
<path fill-rule="evenodd" clip-rule="evenodd" d="M17.8163 57.6005C16.8714 60.9306 13.8159 63.377 10.1809 63.394C5.77671 63.4146 2.18965 59.861 2.169 55.4568C2.16456 54.5087 2.32578 53.5984 2.62548 52.7534C6.53366 37.76 15.1133 24.5753 27.3125 14.9881C39.733 5.22706 55.0549 0.0740264 70.8518 -1.06692e-05L70.9265 15.9491C58.7198 16.0063 46.8808 20.1328 37.2832 27.6754C27.6855 35.2181 20.8124 45.7677 17.8713 57.6149L17.8163 57.6005Z" fill="#98D89E"/>
<path fill-rule="evenodd" clip-rule="evenodd" d="M70.9486 16.1059C70.8631 16.1086 70.7773 16.11 70.6912 16.11C66.2869 16.11 62.7165 12.5396 62.7165 8.13537C62.7165 3.73109 66.2869 0.160728 70.6912 0.160728C70.7773 0.160728 70.8631 0.162094 70.9486 0.164806V0.160728C80.5195 0.160728 89.9916 2.09577 98.7956 5.84956C107.6 9.60335 115.554 15.0984 122.18 22.0044C128.806 28.9105 133.968 37.085 137.355 46.0366C140.742 54.9882 142.283 64.5321 141.888 74.0948C141.492 83.6575 139.168 93.0415 135.053 101.683C130.939 110.324 125.12 118.045 117.946 124.38C110.772 130.715 102.391 135.534 93.3071 138.548C84.2232 141.562 74.313 142.694 64.7748 141.903L66.5754 125.954C73.9458 126.565 81.2062 125.562 88.2256 123.233C95.245 120.904 101.721 117.18 107.265 112.285C112.808 107.389 117.305 101.423 120.484 94.746C123.663 88.0686 125.46 80.8173 125.765 73.428C126.071 66.0386 124.88 58.6637 122.262 51.7466C119.645 44.8294 115.657 38.5128 110.537 33.1763C105.416 27.8398 99.2698 23.5937 92.4667 20.693C85.6636 17.7924 78.3443 16.11 70.9486 16.11V16.1059Z" fill="#98D89E"/>
<path fill-rule="evenodd" clip-rule="evenodd" d="M126.041 70.9277C126.039 70.8423 126.037 70.7564 126.037 70.6703C126.037 66.266 129.608 62.6957 134.012 62.6957C138.416 62.6957 141.987 66.266 141.987 70.6703C141.987 70.7564 141.985 70.8423 141.982 70.9277L141.986 70.9277C141.986 80.4986 140.051 89.9707 136.298 98.7747C132.544 107.579 127.216 115.634 120.31 122.26C113.404 128.887 105.376 134.002 96.4247 137.388C87.4731 140.775 78.9147 142.771 65.1356 141.987L66.9431 126.062C75.981 126.542 83.4833 124.859 90.4005 122.242C97.3176 119.625 103.634 115.636 108.971 110.516C114.307 105.395 118.553 99.2489 121.454 92.4458C124.355 85.6427 126.037 78.3234 126.037 70.9277L126.041 70.9277Z" fill="#EE8484"/>
<path d="M65.7409 141.979C61.1661 141.979 57.4576 138.375 57.4576 133.929C57.4576 129.483 61.1661 125.879 65.7409 125.879C70.3156 125.879 74.0242 129.483 74.0242 133.929C74.0242 138.375 70.3156 141.979 65.7409 141.979Z" fill="#EE8484"/>
</svg>
