<svg width="18" height="18" viewBox="0 0 18 18" fill="none" xmlns="http://www.w3.org/2000/svg">
<g clip-path="url(#clip0_5_6407)">
<path d="M17.1105 4.68047L17.1107 4.68132C17.2857 5.32819 17.3824 6.362 17.4331 7.27046C17.458 7.71712 17.4711 8.12088 17.4781 8.413C17.4816 8.55895 17.4835 8.67675 17.4845 8.75776L17.4855 8.85055L17.4857 8.87418L17.4857 8.87995L17.4857 8.88112L17.4857 8.88691L17.4856 8.91062L17.485 9.00372C17.4843 9.08501 17.4828 9.20319 17.4799 9.34956C17.474 9.64254 17.4622 10.0473 17.4388 10.4946C17.391 11.4049 17.297 12.4372 17.1226 13.0767L17.1221 13.0786C16.9617 13.6754 16.4878 14.1493 15.891 14.3097L15.8891 14.3102C15.594 14.3907 15.0273 14.46 14.2991 14.5139C13.5857 14.5667 12.7597 14.6022 11.9725 14.6259C11.1861 14.6496 10.4426 14.6615 9.8954 14.6674C9.62191 14.6704 9.39772 14.6718 9.24205 14.6726L9.06238 14.6732L9.01562 14.6733L9.00381 14.6733L9.00089 14.6733H9.00019H9.00003L9 15.1876L8.99997 14.6733H8.99981H8.99911L8.99619 14.6733L8.98438 14.6733L8.93762 14.6732L8.75795 14.6726C8.60228 14.6718 8.37809 14.6704 8.1046 14.6674C7.55742 14.6615 6.81391 14.6496 6.02753 14.6259C5.2403 14.6022 4.41431 14.5667 3.70091 14.5139C2.97273 14.46 2.40605 14.3907 2.11093 14.3102L2.10904 14.3097C1.51219 14.1493 1.03828 13.6754 0.877933 13.0786L0.877703 13.0777C0.702971 12.4317 0.608973 11.3987 0.561234 10.4902C0.537769 10.0436 0.526016 9.63997 0.520139 9.34791C0.517203 9.20199 0.515739 9.08422 0.51501 9.00323L0.514374 8.91048L0.514296 8.88687L0.514287 8.88111L0.514286 8.87978L0.514286 8.87955V8.87952V8.87951V8.87948L0.514286 8.87924L0.514287 8.87791L0.514296 8.87213L0.514372 8.84848L0.514988 8.75568C0.515696 8.67466 0.517116 8.55688 0.519964 8.411C0.525665 8.11899 0.537067 7.71552 0.55983 7.2695C0.606114 6.36263 0.697245 5.33229 0.866633 4.69108C1.02723 4.09467 1.50095 3.62118 2.09749 3.46091L2.09749 3.46092L2.09937 3.4604C2.39492 3.3798 2.96198 3.30985 3.69012 3.25484C4.40361 3.20095 5.22966 3.16405 6.01691 3.13889C6.80333 3.11375 7.54686 3.10045 8.09406 3.09343C8.36756 3.08993 8.59175 3.088 8.74744 3.08694L8.92712 3.08593L8.97387 3.08576L8.98569 3.08572L8.98861 3.08572L8.98863 3.08571L8.98933 3.08571L8.99225 3.08572L9.00407 3.08573L9.05082 3.08581L9.23049 3.08645C9.38617 3.08719 9.61036 3.08868 9.88384 3.09164C10.431 3.09758 11.1745 3.10944 11.9609 3.13314C12.7481 3.15686 13.5741 3.19233 14.2875 3.24515C15.0157 3.29907 15.5824 3.36836 15.8775 3.44885L15.8794 3.44936C16.4763 3.60971 16.9502 4.08361 17.1105 4.68047Z" stroke="#FF0000"/>
<path d="M8.48571 7.90381L10.13 9L8.48571 10.0962V7.90381Z" fill="#999CA0" stroke="#FF0000"/>
</g>
<defs>
<clipPath id="clip0_5_6407">
<rect width="17.5" height="17.5" fill="white" transform="scale(1.02857)"/>
</clipPath>
</defs>
</svg>
